<svg width="239" height="115" viewBox="0 0 239 115" fill="none" xmlns="http://www.w3.org/2000/svg">
<g filter="url(#filter0_d_62_2792)">
<rect x="32" y="28.002" width="175" height="51" stroke="white"/>
<path d="M71.959 59.002L76.022 46.847H78.98L82.992 59.002H80.646L79.677 55.993H75.036L74.084 59.002H71.959ZM77.365 48.7L75.563 54.344H79.15L77.365 48.7ZM84.9281 59.002V45.997H86.9851V59.002H84.9281ZM89.7434 59.002V45.997H91.8004V59.002H89.7434ZM98.9284 59.002V46.847H102.838C104.244 46.847 105.343 47.1643 106.136 47.799C106.941 48.4223 107.343 49.3573 107.343 50.604V50.672C107.343 51.9073 106.941 52.8366 106.136 53.46C105.332 54.072 104.249 54.378 102.889 54.378H101.189V59.002H98.9284ZM101.189 52.746H102.838C103.586 52.746 104.153 52.5703 104.538 52.219C104.935 51.8563 105.133 51.3406 105.133 50.672V50.604C105.133 49.2666 104.368 48.598 102.838 48.598H101.189V52.746ZM111.481 59.172C110.608 59.172 109.894 58.9566 109.339 58.526C108.783 58.084 108.506 57.421 108.506 56.537C108.506 55.5623 108.919 54.8483 109.747 54.395C110.574 53.9416 111.679 53.715 113.062 53.715H114.167V53.256C114.167 52.644 114.042 52.1963 113.793 51.913C113.555 51.6183 113.141 51.471 112.552 51.471C111.52 51.471 110.954 51.9356 110.852 52.865H108.863C108.942 51.879 109.327 51.1423 110.019 50.655C110.721 50.1676 111.605 49.924 112.671 49.924C115.039 49.924 116.224 51.0063 116.224 53.171V59.002H114.201V57.914C113.566 58.7526 112.659 59.172 111.481 59.172ZM111.974 57.693C112.62 57.693 113.147 57.5343 113.555 57.217C113.963 56.8883 114.167 56.4463 114.167 55.891V55.007H113.113C111.401 55.007 110.546 55.4886 110.546 56.452C110.546 57.2793 111.022 57.693 111.974 57.693ZM118.781 59.002V50.111H120.838V51.777C121.428 50.587 122.391 49.9863 123.728 49.975V51.896C122.765 51.9073 122.04 52.1 121.552 52.474C121.076 52.848 120.838 53.4826 120.838 54.378V59.002H118.781ZM128.847 59.155C127.975 59.155 127.306 58.9283 126.841 58.475C126.388 58.0216 126.161 57.37 126.161 56.52V51.658H124.971V50.111H126.161V48.156H128.218V50.111H130.173V51.658H128.218V56.333C128.218 57.0923 128.558 57.472 129.238 57.472C129.635 57.472 129.969 57.4153 130.241 57.302V58.934C129.845 59.0813 129.38 59.155 128.847 59.155ZM132.297 59.002V50.111H134.354V51.522C134.58 51.0573 134.943 50.6776 135.442 50.383C135.94 50.077 136.535 49.924 137.227 49.924C138.167 49.924 138.91 50.213 139.454 50.791C139.998 51.3576 140.27 52.2303 140.27 53.409V59.002H138.213V53.596C138.213 52.9273 138.071 52.4343 137.788 52.117C137.504 51.7996 137.057 51.641 136.445 51.641C135.833 51.641 135.328 51.828 134.932 52.202C134.546 52.5646 134.354 53.086 134.354 53.766V59.002H132.297ZM146.749 59.172C145.423 59.172 144.341 58.764 143.502 57.948C142.664 57.132 142.244 56.0326 142.244 54.65V54.514C142.244 53.154 142.658 52.049 143.485 51.199C144.324 50.349 145.384 49.924 146.664 49.924C147.866 49.924 148.863 50.298 149.656 51.046C150.461 51.794 150.863 52.916 150.863 54.412V55.007H144.352C144.386 55.857 144.613 56.5086 145.032 56.962C145.452 57.4153 146.041 57.642 146.8 57.642C148.002 57.642 148.682 57.1886 148.84 56.282H150.829C150.682 57.2113 150.251 57.9253 149.537 58.424C148.823 58.9226 147.894 59.172 146.749 59.172ZM144.386 53.63H148.823C148.721 52.1566 148.002 51.42 146.664 51.42C146.052 51.42 145.542 51.6183 145.134 52.015C144.738 52.4003 144.488 52.9386 144.386 53.63ZM152.901 59.002V50.111H154.958V51.777C155.547 50.587 156.51 49.9863 157.848 49.975V51.896C156.884 51.9073 156.159 52.1 155.672 52.474C155.196 52.848 154.958 53.4826 154.958 54.378V59.002H152.901ZM162.901 59.172C161.756 59.172 160.861 58.917 160.215 58.407C159.569 57.897 159.223 57.1716 159.178 56.231H161.116C161.172 56.707 161.337 57.064 161.609 57.302C161.881 57.54 162.306 57.659 162.884 57.659C163.949 57.659 164.482 57.2793 164.482 56.52C164.482 56.1686 164.334 55.908 164.04 55.738C163.756 55.5566 163.269 55.4093 162.578 55.296C161.388 55.1033 160.555 54.8143 160.079 54.429C159.603 54.0323 159.365 53.4203 159.365 52.593C159.365 51.7543 159.693 51.1026 160.351 50.638C161.008 50.162 161.79 49.924 162.697 49.924C164.827 49.924 165.989 50.8193 166.182 52.61H164.278C164.187 52.202 164.017 51.9016 163.768 51.709C163.53 51.5163 163.173 51.42 162.697 51.42C162.255 51.42 161.909 51.5163 161.66 51.709C161.41 51.9016 161.286 52.1566 161.286 52.474C161.286 52.7913 161.416 53.0293 161.677 53.188C161.937 53.3466 162.419 53.4883 163.122 53.613C164.278 53.7943 165.122 54.072 165.655 54.446C166.187 54.82 166.454 55.449 166.454 56.333C166.454 57.2396 166.142 57.9423 165.519 58.441C164.907 58.9283 164.034 59.172 162.901 59.172Z" fill="white"/>
</g>
<defs>
<filter id="filter0_d_62_2792" x="0.5" y="0.501953" width="238" height="114" filterUnits="userSpaceOnUse" color-interpolation-filters="sRGB">
<feFlood flood-opacity="0" result="BackgroundImageFix"/>
<feColorMatrix in="SourceAlpha" type="matrix" values="0 0 0 0 0 0 0 0 0 0 0 0 0 0 0 0 0 0 127 0" result="hardAlpha"/>
<feOffset dy="4"/>
<feGaussianBlur stdDeviation="15.5"/>
<feColorMatrix type="matrix" values="0 0 0 0 0 0 0 0 0 0 0 0 0 0 0 0 0 0 0.15 0"/>
<feBlend mode="normal" in2="BackgroundImageFix" result="effect1_dropShadow_62_2792"/>
<feBlend mode="normal" in="SourceGraphic" in2="effect1_dropShadow_62_2792" result="shape"/>
</filter>
</defs>
</svg>
