<svg width="170" height="53" viewBox="0 0 170 53" fill="none" xmlns="http://www.w3.org/2000/svg">
<g filter="url(#filter0_d_62_2438)">
<rect x="0.5" y="1" width="138" height="51" stroke="white"/>
<path d="M47.394 32V19.845H49.655V30.198H54.84V32H47.394ZM60.5993 30.572C61.3586 30.572 61.9536 30.3113 62.3843 29.79C62.8263 29.2573 63.0473 28.532 63.0473 27.614V27.495C63.0473 26.577 62.8263 25.8573 62.3843 25.336C61.9536 24.8033 61.3586 24.537 60.5993 24.537C59.8286 24.537 59.2223 24.7977 58.7803 25.319C58.3496 25.8403 58.1343 26.56 58.1343 27.478V27.614C58.1343 28.532 58.3496 29.2573 58.7803 29.79C59.2223 30.3113 59.8286 30.572 60.5993 30.572ZM63.8633 30.912C63.0019 31.7507 61.9083 32.17 60.5823 32.17C59.2563 32.17 58.1626 31.7507 57.3013 30.912C56.4513 30.0733 56.0263 28.9853 56.0263 27.648V27.512C56.0263 26.152 56.4569 25.047 57.3183 24.197C58.1796 23.347 59.2733 22.922 60.5993 22.922C61.9139 22.922 63.0019 23.3413 63.8633 24.18C64.7246 25.0187 65.1553 26.1123 65.1553 27.461V27.597C65.1553 28.9683 64.7246 30.0733 63.8633 30.912ZM71.0048 35.264C69.6788 35.264 68.6645 34.9977 67.9618 34.465C67.2592 33.9323 66.8455 33.2127 66.7208 32.306H68.7948C68.9762 33.2353 69.7072 33.7 70.9878 33.7C72.6425 33.7 73.4698 32.901 73.4698 31.303V29.994C73.2092 30.4473 72.8125 30.8383 72.2798 31.167C71.7585 31.4843 71.1862 31.643 70.5628 31.643C69.4295 31.643 68.4888 31.252 67.7408 30.47C66.9928 29.688 66.6188 28.668 66.6188 27.41V27.291C66.6188 26.0443 66.9985 25.0073 67.7578 24.18C68.5172 23.3413 69.4692 22.922 70.6138 22.922C71.9285 22.922 72.8805 23.4377 73.4698 24.469V23.109H75.5268V31.337C75.5155 32.6177 75.1075 33.5923 74.3028 34.261C73.5095 34.9297 72.4102 35.264 71.0048 35.264ZM71.0728 30.062C71.7982 30.062 72.3875 29.8183 72.8408 29.331C73.3055 28.8437 73.5378 28.1807 73.5378 27.342V27.223C73.5378 26.3843 73.3225 25.727 72.8918 25.251C72.4612 24.775 71.8775 24.537 71.1408 24.537C70.3928 24.537 69.8035 24.7863 69.3728 25.285C68.9422 25.7837 68.7268 26.441 68.7268 27.257V27.393C68.7268 28.1977 68.9478 28.8437 69.3898 29.331C69.8318 29.8183 70.3928 30.062 71.0728 30.062ZM78.2227 32V23.109H80.2797V32H78.2227ZM80.0927 21.307C79.8547 21.5337 79.5657 21.647 79.2257 21.647C78.8857 21.647 78.5967 21.5337 78.3587 21.307C78.1207 21.0803 78.0017 20.8027 78.0017 20.474C78.0017 20.134 78.1207 19.8507 78.3587 19.624C78.5967 19.3973 78.8857 19.284 79.2257 19.284C79.5657 19.284 79.8547 19.3973 80.0927 19.624C80.3307 19.8507 80.4497 20.134 80.4497 20.474C80.4497 20.8027 80.3307 21.0803 80.0927 21.307ZM82.9869 32V23.109H85.0439V24.52C85.2706 24.0553 85.6332 23.6757 86.1319 23.381C86.6306 23.075 87.2256 22.922 87.9169 22.922C88.8576 22.922 89.5999 23.211 90.1439 23.789C90.6879 24.3557 90.9599 25.2283 90.9599 26.407V32H88.9029V26.594C88.9029 25.9253 88.7612 25.4323 88.4779 25.115C88.1946 24.7977 87.7469 24.639 87.1349 24.639C86.5229 24.639 86.0186 24.826 85.6219 25.2C85.2366 25.5627 85.0439 26.084 85.0439 26.764V32H82.9869Z" fill="white"/>
</g>
<defs>
<filter id="filter0_d_62_2438" x="-31" y="-26.5" width="201" height="114" filterUnits="userSpaceOnUse" color-interpolation-filters="sRGB">
<feFlood flood-opacity="0" result="BackgroundImageFix"/>
<feColorMatrix in="SourceAlpha" type="matrix" values="0 0 0 0 0 0 0 0 0 0 0 0 0 0 0 0 0 0 127 0" result="hardAlpha"/>
<feOffset dy="4"/>
<feGaussianBlur stdDeviation="15.5"/>
<feColorMatrix type="matrix" values="0 0 0 0 0 0 0 0 0 0 0 0 0 0 0 0 0 0 0.15 0"/>
<feBlend mode="normal" in2="BackgroundImageFix" result="effect1_dropShadow_62_2438"/>
<feBlend mode="normal" in="SourceGraphic" in2="effect1_dropShadow_62_2438" result="shape"/>
</filter>
</defs>
</svg>
