<svg width="179" height="100" viewBox="0 0 179 100" fill="none" xmlns="http://www.w3.org/2000/svg">
<g filter="url(#filter0_d_62_2444)">
<rect width="178" height="65" transform="translate(0.5)" fill="#4452FE"/>
<path d="M44.325 38V27.63H40.942V25.845H49.986V27.63H46.603V38H44.325ZM51.2375 38V29.109H53.2945V30.775C53.8838 29.585 54.8471 28.9843 56.1845 28.973V30.894C55.2211 30.9053 54.4958 31.098 54.0085 31.472C53.5325 31.846 53.2945 32.4807 53.2945 33.376V38H51.2375ZM59.2633 41.043L60.8783 37.099L57.3593 29.109H59.5863L61.9493 34.838L64.1253 29.109H66.1313L61.2863 41.043H59.2633ZM72.2946 38V25.845H79.8256V27.647H74.5556V31.268H78.7036V33.019H74.5556V38H72.2946ZM85.367 36.572C86.1264 36.572 86.7214 36.3113 87.152 35.79C87.594 35.2573 87.815 34.532 87.815 33.614V33.495C87.815 32.577 87.594 31.8573 87.152 31.336C86.7214 30.8033 86.1264 30.537 85.367 30.537C84.5964 30.537 83.99 30.7977 83.548 31.319C83.1174 31.8403 82.902 32.56 82.902 33.478V33.614C82.902 34.532 83.1174 35.2573 83.548 35.79C83.99 36.3113 84.5964 36.572 85.367 36.572ZM88.631 36.912C87.7697 37.7507 86.676 38.17 85.35 38.17C84.024 38.17 82.9304 37.7507 82.069 36.912C81.219 36.0733 80.794 34.9853 80.794 33.648V33.512C80.794 32.152 81.2247 31.047 82.086 30.197C82.9474 29.347 84.041 28.922 85.367 28.922C86.6817 28.922 87.7697 29.3413 88.631 30.18C89.4924 31.0187 89.923 32.1123 89.923 33.461V33.597C89.923 34.9683 89.4924 36.0733 88.631 36.912ZM91.9816 38V29.109H94.0386V30.775C94.628 29.585 95.5913 28.9843 96.9286 28.973V30.894C95.9653 30.9053 95.24 31.098 94.7526 31.472C94.2766 31.846 94.0386 32.4807 94.0386 33.376V38H91.9816ZM103.359 38V25.845H110.89V27.647H105.62V31.268H109.768V33.019H105.62V38H103.359ZM112.553 38V29.109H114.61V30.775C115.2 29.585 116.163 28.9843 117.5 28.973V30.894C116.537 30.9053 115.812 31.098 115.324 31.472C114.848 31.846 114.61 32.4807 114.61 33.376V38H112.553ZM123.254 38.17C121.928 38.17 120.846 37.762 120.007 36.946C119.168 36.13 118.749 35.0307 118.749 33.648V33.512C118.749 32.152 119.163 31.047 119.99 30.197C120.829 29.347 121.888 28.922 123.169 28.922C124.37 28.922 125.368 29.296 126.161 30.044C126.966 30.792 127.368 31.914 127.368 33.41V34.005H120.857C120.891 34.855 121.118 35.5067 121.537 35.96C121.956 36.4133 122.546 36.64 123.305 36.64C124.506 36.64 125.186 36.1867 125.345 35.28H127.334C127.187 36.2093 126.756 36.9233 126.042 37.422C125.328 37.9207 124.399 38.17 123.254 38.17ZM120.891 32.628H125.328C125.226 31.1547 124.506 30.418 123.169 30.418C122.557 30.418 122.047 30.6163 121.639 31.013C121.242 31.3983 120.993 31.9367 120.891 32.628ZM133.315 38.17C131.989 38.17 130.907 37.762 130.068 36.946C129.23 36.13 128.81 35.0307 128.81 33.648V33.512C128.81 32.152 129.224 31.047 130.051 30.197C130.89 29.347 131.95 28.922 133.23 28.922C134.432 28.922 135.429 29.296 136.222 30.044C137.027 30.792 137.429 31.914 137.429 33.41V34.005H130.918C130.952 34.855 131.179 35.5067 131.598 35.96C132.018 36.4133 132.607 36.64 133.366 36.64C134.568 36.64 135.248 36.1867 135.406 35.28H137.395C137.248 36.2093 136.817 36.9233 136.103 37.422C135.389 37.9207 134.46 38.17 133.315 38.17ZM130.952 32.628H135.389C135.287 31.1547 134.568 30.418 133.23 30.418C132.618 30.418 132.108 30.6163 131.7 31.013C131.304 31.3983 131.054 31.9367 130.952 32.628Z" fill="white"/>
</g>
<defs>
<filter id="filter0_d_62_2444" x="-30.5" y="-27" width="240" height="127" filterUnits="userSpaceOnUse" color-interpolation-filters="sRGB">
<feFlood flood-opacity="0" result="BackgroundImageFix"/>
<feColorMatrix in="SourceAlpha" type="matrix" values="0 0 0 0 0 0 0 0 0 0 0 0 0 0 0 0 0 0 127 0" result="hardAlpha"/>
<feOffset dy="4"/>
<feGaussianBlur stdDeviation="15.5"/>
<feColorMatrix type="matrix" values="0 0 0 0 0 0 0 0 0 0 0 0 0 0 0 0 0 0 0.15 0"/>
<feBlend mode="normal" in2="BackgroundImageFix" result="effect1_dropShadow_62_2444"/>
<feBlend mode="normal" in="SourceGraphic" in2="effect1_dropShadow_62_2444" result="shape"/>
</filter>
</defs>
</svg>
