<svg width="179" height="92" viewBox="0 0 179 92" fill="none" xmlns="http://www.w3.org/2000/svg">
<g filter="url(#filter0_d_62_3038)">
<rect x="3" y="27.5" width="173" height="64" stroke="white"/>
<path d="M43.894 65V52.845H46.155V63.198H51.34V65H43.894ZM57.0313 65.17C55.7053 65.17 54.6229 64.762 53.7843 63.946C52.9456 63.13 52.5263 62.0307 52.5263 60.648V60.512C52.5263 59.152 52.9399 58.047 53.7673 57.197C54.6059 56.347 55.6656 55.922 56.9463 55.922C58.1476 55.922 59.1449 56.296 59.9383 57.044C60.7429 57.792 61.1453 58.914 61.1453 60.41V61.005H54.6343C54.6683 61.855 54.8949 62.5067 55.3143 62.96C55.7336 63.4133 56.3229 63.64 57.0823 63.64C58.2836 63.64 58.9636 63.1867 59.1223 62.28H61.1113C60.9639 63.2093 60.5333 63.9233 59.8193 64.422C59.1053 64.9207 58.1759 65.17 57.0313 65.17ZM54.6683 59.628H59.1053C59.0033 58.1547 58.2836 57.418 56.9463 57.418C56.3343 57.418 55.8243 57.6163 55.4163 58.013C55.0196 58.3983 54.7703 58.9367 54.6683 59.628ZM65.5946 65.17C64.7219 65.17 64.0079 64.9547 63.4526 64.524C62.8973 64.082 62.6196 63.419 62.6196 62.535C62.6196 61.5603 63.0333 60.8463 63.8606 60.393C64.6879 59.9397 65.7929 59.713 67.1756 59.713H68.2806V59.254C68.2806 58.642 68.1559 58.1943 67.9066 57.911C67.6686 57.6163 67.2549 57.469 66.6656 57.469C65.6343 57.469 65.0676 57.9337 64.9656 58.863H62.9766C63.0559 57.877 63.4413 57.1403 64.1326 56.653C64.8353 56.1657 65.7193 55.922 66.7846 55.922C69.1533 55.922 70.3376 57.0043 70.3376 59.169V65H68.3146V63.912C67.6799 64.7507 66.7733 65.17 65.5946 65.17ZM66.0876 63.691C66.7336 63.691 67.2606 63.5323 67.6686 63.215C68.0766 62.8863 68.2806 62.4443 68.2806 61.889V61.005H67.2266C65.5153 61.005 64.6596 61.4867 64.6596 62.45C64.6596 63.2773 65.1356 63.691 66.0876 63.691ZM72.8953 65V56.109H74.9523V57.775C75.5416 56.585 76.505 55.9843 77.8423 55.973V57.894C76.879 57.9053 76.1536 58.098 75.6663 58.472C75.1903 58.846 74.9523 59.4807 74.9523 60.376V65H72.8953ZM79.8521 65V56.109H81.9091V57.52C82.1358 57.0553 82.4985 56.6757 82.9971 56.381C83.4958 56.075 84.0908 55.922 84.7821 55.922C85.7228 55.922 86.4651 56.211 87.0091 56.789C87.5531 57.3557 87.8251 58.2283 87.8251 59.407V65H85.7681V59.594C85.7681 58.9253 85.6265 58.4323 85.3431 58.115C85.0598 57.7977 84.6121 57.639 84.0001 57.639C83.3881 57.639 82.8838 57.826 82.4871 58.2C82.1018 58.5627 81.9091 59.084 81.9091 59.764V65H79.8521ZM94.8157 65V52.845H97.8417L101.038 61.141L104.166 52.845H107.158V65H104.897V55.82L101.276 65H100.545L96.8557 55.82V65H94.8157ZM113.865 63.572C114.624 63.572 115.219 63.3113 115.65 62.79C116.092 62.2573 116.313 61.532 116.313 60.614V60.495C116.313 59.577 116.092 58.8573 115.65 58.336C115.219 57.8033 114.624 57.537 113.865 57.537C113.094 57.537 112.488 57.7977 112.046 58.319C111.615 58.8403 111.4 59.56 111.4 60.478V60.614C111.4 61.532 111.615 62.2573 112.046 62.79C112.488 63.3113 113.094 63.572 113.865 63.572ZM117.129 63.912C116.267 64.7507 115.174 65.17 113.848 65.17C112.522 65.17 111.428 64.7507 110.567 63.912C109.717 63.0733 109.292 61.9853 109.292 60.648V60.512C109.292 59.152 109.722 58.047 110.584 57.197C111.445 56.347 112.539 55.922 113.865 55.922C115.179 55.922 116.267 56.3413 117.129 57.18C117.99 58.0187 118.421 59.1123 118.421 60.461V60.597C118.421 61.9683 117.99 63.0733 117.129 63.912ZM120.479 65V56.109H122.536V57.775C123.126 56.585 124.089 55.9843 125.426 55.973V57.894C124.463 57.9053 123.738 58.098 123.25 58.472C122.774 58.846 122.536 59.4807 122.536 60.376V65H120.479ZM131.18 65.17C129.854 65.17 128.772 64.762 127.933 63.946C127.094 63.13 126.675 62.0307 126.675 60.648V60.512C126.675 59.152 127.089 58.047 127.916 57.197C128.755 56.347 129.814 55.922 131.095 55.922C132.296 55.922 133.294 56.296 134.087 57.044C134.892 57.792 135.294 58.914 135.294 60.41V61.005H128.783C128.817 61.855 129.044 62.5067 129.463 62.96C129.882 63.4133 130.472 63.64 131.231 63.64C132.432 63.64 133.112 63.1867 133.271 62.28H135.26C135.113 63.2093 134.682 63.9233 133.968 64.422C133.254 64.9207 132.325 65.17 131.18 65.17ZM128.817 59.628H133.254C133.152 58.1547 132.432 57.418 131.095 57.418C130.483 57.418 129.973 57.6163 129.565 58.013C129.168 58.3983 128.919 58.9367 128.817 59.628Z" fill="white"/>
</g>
<defs>
<filter id="filter0_d_62_3038" x="-28.5" y="0" width="236" height="127" filterUnits="userSpaceOnUse" color-interpolation-filters="sRGB">
<feFlood flood-opacity="0" result="BackgroundImageFix"/>
<feColorMatrix in="SourceAlpha" type="matrix" values="0 0 0 0 0 0 0 0 0 0 0 0 0 0 0 0 0 0 127 0" result="hardAlpha"/>
<feOffset dy="4"/>
<feGaussianBlur stdDeviation="15.5"/>
<feColorMatrix type="matrix" values="0 0 0 0 0 0 0 0 0 0 0 0 0 0 0 0 0 0 0.15 0"/>
<feBlend mode="normal" in2="BackgroundImageFix" result="effect1_dropShadow_62_3038"/>
<feBlend mode="normal" in="SourceGraphic" in2="effect1_dropShadow_62_3038" result="shape"/>
</filter>
</defs>
</svg>
