<svg width="295" height="115" viewBox="0 0 295 115" fill="none" xmlns="http://www.w3.org/2000/svg">
<g filter="url(#filter0_d_62_2877)">
<rect width="232" height="52" transform="translate(31.5 27.502)" fill="#4452FE"/>
<path d="M102.325 59.002V48.632H98.942V46.847H107.986V48.632H104.603V59.002H102.325ZM109.237 59.002V50.111H111.294V51.777C111.884 50.587 112.847 49.9863 114.184 49.975V51.896C113.221 51.9073 112.496 52.1 112.008 52.474C111.532 52.848 111.294 53.4826 111.294 54.378V59.002H109.237ZM117.263 62.045L118.878 58.101L115.359 50.111H117.586L119.949 55.84L122.125 50.111H124.131L119.286 62.045H117.263ZM130.295 59.002V46.847H137.826V48.649H132.556V52.27H136.704V54.021H132.556V59.002H130.295ZM143.367 57.574C144.126 57.574 144.721 57.3133 145.152 56.792C145.594 56.2593 145.815 55.534 145.815 54.616V54.497C145.815 53.579 145.594 52.8593 145.152 52.338C144.721 51.8053 144.126 51.539 143.367 51.539C142.596 51.539 141.99 51.7996 141.548 52.321C141.117 52.8423 140.902 53.562 140.902 54.48V54.616C140.902 55.534 141.117 56.2593 141.548 56.792C141.99 57.3133 142.596 57.574 143.367 57.574ZM146.631 57.914C145.77 58.7526 144.676 59.172 143.35 59.172C142.024 59.172 140.93 58.7526 140.069 57.914C139.219 57.0753 138.794 55.9873 138.794 54.65V54.514C138.794 53.154 139.225 52.049 140.086 51.199C140.947 50.349 142.041 49.924 143.367 49.924C144.682 49.924 145.77 50.3433 146.631 51.182C147.492 52.0206 147.923 53.1143 147.923 54.463V54.599C147.923 55.9703 147.492 57.0753 146.631 57.914ZM149.982 59.002V50.111H152.039V51.777C152.628 50.587 153.591 49.9863 154.929 49.975V51.896C153.965 51.9073 153.24 52.1 152.753 52.474C152.277 52.848 152.039 53.4826 152.039 54.378V59.002H149.982ZM161.359 59.002V46.847H168.89V48.649H163.62V52.27H167.768V54.021H163.62V59.002H161.359ZM170.553 59.002V50.111H172.61V51.777C173.2 50.587 174.163 49.9863 175.5 49.975V51.896C174.537 51.9073 173.812 52.1 173.324 52.474C172.848 52.848 172.61 53.4826 172.61 54.378V59.002H170.553ZM181.254 59.172C179.928 59.172 178.846 58.764 178.007 57.948C177.168 57.132 176.749 56.0326 176.749 54.65V54.514C176.749 53.154 177.163 52.049 177.99 51.199C178.829 50.349 179.888 49.924 181.169 49.924C182.37 49.924 183.368 50.298 184.161 51.046C184.966 51.794 185.368 52.916 185.368 54.412V55.007H178.857C178.891 55.857 179.118 56.5086 179.537 56.962C179.956 57.4153 180.546 57.642 181.305 57.642C182.506 57.642 183.186 57.1886 183.345 56.282H185.334C185.187 57.2113 184.756 57.9253 184.042 58.424C183.328 58.9226 182.399 59.172 181.254 59.172ZM178.891 53.63H183.328C183.226 52.1566 182.506 51.42 181.169 51.42C180.557 51.42 180.047 51.6183 179.639 52.015C179.242 52.4003 178.993 52.9386 178.891 53.63ZM191.315 59.172C189.989 59.172 188.907 58.764 188.068 57.948C187.23 57.132 186.81 56.0326 186.81 54.65V54.514C186.81 53.154 187.224 52.049 188.051 51.199C188.89 50.349 189.95 49.924 191.23 49.924C192.432 49.924 193.429 50.298 194.222 51.046C195.027 51.794 195.429 52.916 195.429 54.412V55.007H188.918C188.952 55.857 189.179 56.5086 189.598 56.962C190.018 57.4153 190.607 57.642 191.366 57.642C192.568 57.642 193.248 57.1886 193.406 56.282H195.395C195.248 57.2113 194.817 57.9253 194.103 58.424C193.389 58.9226 192.46 59.172 191.315 59.172ZM188.952 53.63H193.389C193.287 52.1566 192.568 51.42 191.23 51.42C190.618 51.42 190.108 51.6183 189.7 52.015C189.304 52.4003 189.054 52.9386 188.952 53.63Z" fill="white"/>
</g>
<defs>
<filter id="filter0_d_62_2877" x="0.5" y="0.501953" width="294" height="114" filterUnits="userSpaceOnUse" color-interpolation-filters="sRGB">
<feFlood flood-opacity="0" result="BackgroundImageFix"/>
<feColorMatrix in="SourceAlpha" type="matrix" values="0 0 0 0 0 0 0 0 0 0 0 0 0 0 0 0 0 0 127 0" result="hardAlpha"/>
<feOffset dy="4"/>
<feGaussianBlur stdDeviation="15.5"/>
<feColorMatrix type="matrix" values="0 0 0 0 0 0 0 0 0 0 0 0 0 0 0 0 0 0 0.15 0"/>
<feBlend mode="normal" in2="BackgroundImageFix" result="effect1_dropShadow_62_2877"/>
<feBlend mode="normal" in="SourceGraphic" in2="effect1_dropShadow_62_2877" result="shape"/>
</filter>
</defs>
</svg>
