<svg width="253" height="115" viewBox="0 0 253 115" fill="none" xmlns="http://www.w3.org/2000/svg">
<g filter="url(#filter0_d_62_2663)">
<rect width="190" height="52" transform="translate(31.5 27.9553)" fill="#4452FE"/>
<path d="M81.325 59.4553V49.0853H77.942V47.3003H86.986V49.0853H83.603V59.4553H81.325ZM88.2375 59.4553V50.5643H90.2945V52.2303C90.8838 51.0403 91.8471 50.4397 93.1845 50.4283V52.3493C92.2211 52.3607 91.4958 52.5533 91.0085 52.9273C90.5325 53.3013 90.2945 53.936 90.2945 54.8313V59.4553H88.2375ZM96.2633 62.4983L97.8783 58.5543L94.3593 50.5643H96.5863L98.9493 56.2933L101.125 50.5643H103.131L98.2863 62.4983H96.2633ZM109.295 59.4553V47.3003H116.826V49.1023H111.556V52.7233H115.704V54.4743H111.556V59.4553H109.295ZM122.367 58.0273C123.126 58.0273 123.721 57.7667 124.152 57.2453C124.594 56.7127 124.815 55.9873 124.815 55.0693V54.9503C124.815 54.0323 124.594 53.3127 124.152 52.7913C123.721 52.2587 123.126 51.9923 122.367 51.9923C121.596 51.9923 120.99 52.253 120.548 52.7743C120.117 53.2957 119.902 54.0153 119.902 54.9333V55.0693C119.902 55.9873 120.117 56.7127 120.548 57.2453C120.99 57.7667 121.596 58.0273 122.367 58.0273ZM125.631 58.3673C124.77 59.206 123.676 59.6253 122.35 59.6253C121.024 59.6253 119.93 59.206 119.069 58.3673C118.219 57.5287 117.794 56.4407 117.794 55.1033V54.9673C117.794 53.6073 118.225 52.5023 119.086 51.6523C119.947 50.8023 121.041 50.3773 122.367 50.3773C123.682 50.3773 124.77 50.7967 125.631 51.6353C126.492 52.474 126.923 53.5677 126.923 54.9163V55.0523C126.923 56.4237 126.492 57.5287 125.631 58.3673ZM128.982 59.4553V50.5643H131.039V52.2303C131.628 51.0403 132.591 50.4397 133.929 50.4283V52.3493C132.965 52.3607 132.24 52.5533 131.753 52.9273C131.277 53.3013 131.039 53.936 131.039 54.8313V59.4553H128.982ZM140.359 59.4553V47.3003H147.89V49.1023H142.62V52.7233H146.768V54.4743H142.62V59.4553H140.359ZM149.553 59.4553V50.5643H151.61V52.2303C152.2 51.0403 153.163 50.4397 154.5 50.4283V52.3493C153.537 52.3607 152.812 52.5533 152.324 52.9273C151.848 53.3013 151.61 53.936 151.61 54.8313V59.4553H149.553ZM160.254 59.6253C158.928 59.6253 157.846 59.2173 157.007 58.4013C156.168 57.5853 155.749 56.486 155.749 55.1033V54.9673C155.749 53.6073 156.163 52.5023 156.99 51.6523C157.829 50.8023 158.888 50.3773 160.169 50.3773C161.37 50.3773 162.368 50.7513 163.161 51.4993C163.966 52.2473 164.368 53.3693 164.368 54.8653V55.4603H157.857C157.891 56.3103 158.118 56.962 158.537 57.4153C158.956 57.8687 159.546 58.0953 160.305 58.0953C161.506 58.0953 162.186 57.642 162.345 56.7353H164.334C164.187 57.6647 163.756 58.3787 163.042 58.8773C162.328 59.376 161.399 59.6253 160.254 59.6253ZM157.891 54.0833H162.328C162.226 52.61 161.506 51.8733 160.169 51.8733C159.557 51.8733 159.047 52.0717 158.639 52.4683C158.242 52.8537 157.993 53.392 157.891 54.0833ZM170.315 59.6253C168.989 59.6253 167.907 59.2173 167.068 58.4013C166.23 57.5853 165.81 56.486 165.81 55.1033V54.9673C165.81 53.6073 166.224 52.5023 167.051 51.6523C167.89 50.8023 168.95 50.3773 170.23 50.3773C171.432 50.3773 172.429 50.7513 173.222 51.4993C174.027 52.2473 174.429 53.3693 174.429 54.8653V55.4603H167.918C167.952 56.3103 168.179 56.962 168.598 57.4153C169.018 57.8687 169.607 58.0953 170.366 58.0953C171.568 58.0953 172.248 57.642 172.406 56.7353H174.395C174.248 57.6647 173.817 58.3787 173.103 58.8773C172.389 59.376 171.46 59.6253 170.315 59.6253ZM167.952 54.0833H172.389C172.287 52.61 171.568 51.8733 170.23 51.8733C169.618 51.8733 169.108 52.0717 168.7 52.4683C168.304 52.8537 168.054 53.392 167.952 54.0833Z" fill="white"/>
</g>
<defs>
<filter id="filter0_d_62_2663" x="0.5" y="0.955322" width="252" height="114" filterUnits="userSpaceOnUse" color-interpolation-filters="sRGB">
<feFlood flood-opacity="0" result="BackgroundImageFix"/>
<feColorMatrix in="SourceAlpha" type="matrix" values="0 0 0 0 0 0 0 0 0 0 0 0 0 0 0 0 0 0 127 0" result="hardAlpha"/>
<feOffset dy="4"/>
<feGaussianBlur stdDeviation="15.5"/>
<feColorMatrix type="matrix" values="0 0 0 0 0 0 0 0 0 0 0 0 0 0 0 0 0 0 0.15 0"/>
<feBlend mode="normal" in2="BackgroundImageFix" result="effect1_dropShadow_62_2663"/>
<feBlend mode="normal" in="SourceGraphic" in2="effect1_dropShadow_62_2663" result="shape"/>
</filter>
</defs>
</svg>
