<svg width="219" height="114" viewBox="0 0 219 114" fill="none" xmlns="http://www.w3.org/2000/svg">
<g filter="url(#filter0_d_62_2651)">
<rect width="157" height="52" transform="translate(31 27)" fill="#4452FE"/>
<path d="M82.525 58.67C80.9383 58.67 79.7483 58.3187 78.955 57.616C78.173 56.9133 77.7367 55.95 77.646 54.726H79.822C79.9127 55.44 80.1507 55.9953 80.536 56.392C80.9213 56.7773 81.5843 56.97 82.525 56.97C83.205 56.97 83.7547 56.8 84.174 56.46C84.6047 56.1087 84.82 55.6553 84.82 55.1C84.82 54.5333 84.6443 54.1197 84.293 53.859C83.9417 53.5983 83.273 53.3887 82.287 53.23C80.7797 53.026 79.686 52.6633 79.006 52.142C78.3373 51.6093 78.003 50.7877 78.003 49.677C78.003 48.6683 78.394 47.8353 79.176 47.178C79.958 46.5207 80.978 46.192 82.236 46.192C83.5507 46.192 84.5877 46.4923 85.347 47.093C86.1063 47.6823 86.5427 48.555 86.656 49.711H84.582C84.4687 49.0763 84.225 48.6173 83.851 48.334C83.477 48.0393 82.9387 47.892 82.236 47.892C81.5673 47.892 81.0517 48.0393 80.689 48.334C80.3263 48.6173 80.145 49.0027 80.145 49.49C80.145 50.0113 80.3093 50.4023 80.638 50.663C80.978 50.9237 81.6523 51.1277 82.661 51.275C84.1683 51.479 85.2677 51.8473 85.959 52.38C86.6503 52.9013 86.996 53.7457 86.996 54.913C86.996 55.9897 86.5823 56.885 85.755 57.599C84.9277 58.313 83.851 58.67 82.525 58.67ZM89.266 58.5V49.609H91.323V58.5H89.266ZM91.136 47.807C90.898 48.0337 90.609 48.147 90.269 48.147C89.929 48.147 89.64 48.0337 89.402 47.807C89.164 47.5803 89.045 47.3027 89.045 46.974C89.045 46.634 89.164 46.3507 89.402 46.124C89.64 45.8973 89.929 45.784 90.269 45.784C90.609 45.784 90.898 45.8973 91.136 46.124C91.374 46.3507 91.493 46.634 91.493 46.974C91.493 47.3027 91.374 47.5803 91.136 47.807ZM97.8212 61.764C96.4952 61.764 95.4809 61.4977 94.7782 60.965C94.0756 60.4323 93.6619 59.7127 93.5372 58.806H95.6112C95.7926 59.7353 96.5236 60.2 97.8042 60.2C99.4589 60.2 100.286 59.401 100.286 57.803V56.494C100.026 56.9473 99.6289 57.3383 99.0962 57.667C98.5749 57.9843 98.0026 58.143 97.3793 58.143C96.2459 58.143 95.3052 57.752 94.5572 56.97C93.8092 56.188 93.4352 55.168 93.4352 53.91V53.791C93.4352 52.5443 93.8149 51.5073 94.5742 50.68C95.3336 49.8413 96.2856 49.422 97.4302 49.422C98.7449 49.422 99.6969 49.9377 100.286 50.969V49.609H102.343V57.837C102.332 59.1177 101.924 60.0923 101.119 60.761C100.326 61.4297 99.2266 61.764 97.8212 61.764ZM97.8893 56.562C98.6146 56.562 99.2039 56.3183 99.6573 55.831C100.122 55.3437 100.354 54.6807 100.354 53.842V53.723C100.354 52.8843 100.139 52.227 99.7082 51.751C99.2776 51.275 98.6939 51.037 97.9572 51.037C97.2092 51.037 96.6199 51.2863 96.1892 51.785C95.7586 52.2837 95.5432 52.941 95.5432 53.757V53.893C95.5432 54.6977 95.7642 55.3437 96.2062 55.831C96.6482 56.3183 97.2092 56.562 97.8893 56.562ZM104.988 58.5V49.609H107.045V51.02C107.272 50.5553 107.634 50.1757 108.133 49.881C108.632 49.575 109.227 49.422 109.918 49.422C110.859 49.422 111.601 49.711 112.145 50.289C112.689 50.8557 112.961 51.7283 112.961 52.907V58.5H110.904V53.094C110.904 52.4253 110.762 51.9323 110.479 51.615C110.196 51.2977 109.748 51.139 109.136 51.139C108.524 51.139 108.02 51.326 107.623 51.7C107.238 52.0627 107.045 52.584 107.045 53.264V58.5H104.988ZM124.627 58.67C123.097 58.67 121.918 58.262 121.091 57.446C120.263 56.6187 119.85 55.4287 119.85 53.876V46.345H122.128V53.706C122.128 54.828 122.32 55.6327 122.706 56.12C123.102 56.6073 123.748 56.851 124.644 56.851C125.55 56.851 126.213 56.6073 126.633 56.12C127.063 55.6213 127.279 54.7657 127.279 53.553V46.345H129.557V53.74C129.557 55.338 129.132 56.562 128.282 57.412C127.443 58.2507 126.225 58.67 124.627 58.67ZM132.184 61.543V49.609H134.241V51.037C134.501 50.5837 134.892 50.204 135.414 49.898C135.946 49.5807 136.524 49.422 137.148 49.422C138.292 49.422 139.233 49.83 139.97 50.646C140.718 51.4507 141.092 52.55 141.092 53.944V54.08C141.092 55.4853 140.723 56.6017 139.987 57.429C139.261 58.2563 138.315 58.67 137.148 58.67C136.479 58.67 135.89 58.5283 135.38 58.245C134.87 57.9503 134.49 57.5707 134.241 57.106V61.543H132.184ZM136.638 57.038C137.397 57.038 137.975 56.7887 138.372 56.29C138.78 55.7913 138.984 55.066 138.984 54.114V53.978C138.984 53.026 138.763 52.3007 138.321 51.802C137.89 51.292 137.323 51.037 136.621 51.037C135.884 51.037 135.289 51.292 134.836 51.802C134.394 52.3007 134.173 53.026 134.173 53.978V54.114C134.173 55.0773 134.388 55.8083 134.819 56.307C135.261 56.7943 135.867 57.038 136.638 57.038Z" fill="white"/>
</g>
<defs>
<filter id="filter0_d_62_2651" x="0" y="0" width="219" height="114" filterUnits="userSpaceOnUse" color-interpolation-filters="sRGB">
<feFlood flood-opacity="0" result="BackgroundImageFix"/>
<feColorMatrix in="SourceAlpha" type="matrix" values="0 0 0 0 0 0 0 0 0 0 0 0 0 0 0 0 0 0 127 0" result="hardAlpha"/>
<feOffset dy="4"/>
<feGaussianBlur stdDeviation="15.5"/>
<feColorMatrix type="matrix" values="0 0 0 0 0 0 0 0 0 0 0 0 0 0 0 0 0 0 0.15 0"/>
<feBlend mode="normal" in2="BackgroundImageFix" result="effect1_dropShadow_62_2651"/>
<feBlend mode="normal" in="SourceGraphic" in2="effect1_dropShadow_62_2651" result="shape"/>
</filter>
</defs>
</svg>
