<svg width="221" height="115" viewBox="0 0 221 115" fill="none" xmlns="http://www.w3.org/2000/svg">
<g filter="url(#filter0_d_62_2707)">
<rect x="31.5" y="28.4551" width="158" height="51" stroke="white"/>
<path d="M76.525 59.6251C74.9383 59.6251 73.7483 59.2737 72.955 58.5711C72.173 57.8684 71.7367 56.9051 71.646 55.6811H73.822C73.9127 56.3951 74.1507 56.9504 74.536 57.3471C74.9213 57.7324 75.5843 57.9251 76.525 57.9251C77.205 57.9251 77.7547 57.7551 78.174 57.4151C78.6047 57.0637 78.82 56.6104 78.82 56.0551C78.82 55.4884 78.6443 55.0747 78.293 54.8141C77.9417 54.5534 77.273 54.3437 76.287 54.1851C74.7797 53.9811 73.686 53.6184 73.006 53.0971C72.3373 52.5644 72.003 51.7427 72.003 50.6321C72.003 49.6234 72.394 48.7904 73.176 48.1331C73.958 47.4757 74.978 47.1471 76.236 47.1471C77.5507 47.1471 78.5877 47.4474 79.347 48.0481C80.1063 48.6374 80.5427 49.5101 80.656 50.6661H78.582C78.4687 50.0314 78.225 49.5724 77.851 49.2891C77.477 48.9944 76.9387 48.8471 76.236 48.8471C75.5673 48.8471 75.0517 48.9944 74.689 49.2891C74.3263 49.5724 74.145 49.9577 74.145 50.4451C74.145 50.9664 74.3093 51.3574 74.638 51.6181C74.978 51.8787 75.6523 52.0827 76.661 52.2301C78.1683 52.4341 79.2677 52.8024 79.959 53.3351C80.6503 53.8564 80.996 54.7007 80.996 55.8681C80.996 56.9447 80.5823 57.8401 79.755 58.5541C78.9277 59.2681 77.851 59.6251 76.525 59.6251ZM87.125 59.6251C85.799 59.6251 84.7167 59.2171 83.878 58.4011C83.0393 57.5851 82.62 56.4857 82.62 55.1031V54.9671C82.62 53.6071 83.0337 52.5021 83.861 51.6521C84.6997 50.8021 85.7593 50.3771 87.04 50.3771C88.2413 50.3771 89.2387 50.7511 90.032 51.4991C90.8367 52.2471 91.239 53.3691 91.239 54.8651V55.4601H84.728C84.762 56.3101 84.9887 56.9617 85.408 57.4151C85.8273 57.8684 86.4167 58.0951 87.176 58.0951C88.3773 58.0951 89.0573 57.6417 89.216 56.7351H91.205C91.0577 57.6644 90.627 58.3784 89.913 58.8771C89.199 59.3757 88.2697 59.6251 87.125 59.6251ZM84.762 54.0831H89.199C89.097 52.6097 88.3773 51.8731 87.04 51.8731C86.428 51.8731 85.918 52.0714 85.51 52.4681C85.1133 52.8534 84.864 53.3917 84.762 54.0831ZM97.1863 59.6251C95.8603 59.6251 94.778 59.2171 93.9393 58.4011C93.1007 57.5851 92.6813 56.4857 92.6813 55.1031V54.9671C92.6813 53.6071 93.095 52.5021 93.9223 51.6521C94.761 50.8021 95.8207 50.3771 97.1013 50.3771C98.3027 50.3771 99.3 50.7511 100.093 51.4991C100.898 52.2471 101.3 53.3691 101.3 54.8651V55.4601H94.7893C94.8233 56.3101 95.05 56.9617 95.4693 57.4151C95.8887 57.8684 96.478 58.0951 97.2373 58.0951C98.4387 58.0951 99.1187 57.6417 99.2773 56.7351H101.266C101.119 57.6644 100.688 58.3784 99.9743 58.8771C99.2603 59.3757 98.331 59.6251 97.1863 59.6251ZM94.8233 54.0831H99.2603C99.1583 52.6097 98.4387 51.8731 97.1013 51.8731C96.4893 51.8731 95.9793 52.0714 95.5713 52.4681C95.1747 52.8534 94.9253 53.3917 94.8233 54.0831ZM107.588 59.4551V50.5641H109.645V51.9241C109.872 51.4821 110.223 51.1137 110.699 50.8191C111.175 50.5244 111.725 50.3771 112.348 50.3771C113.595 50.3771 114.434 50.9097 114.864 51.9751C115.193 51.4537 115.629 51.0571 116.173 50.7851C116.717 50.5131 117.284 50.3771 117.873 50.3771C118.746 50.3771 119.454 50.6661 119.998 51.2441C120.554 51.8107 120.831 52.6721 120.831 53.8281V59.4551H118.774V53.9641C118.774 52.7174 118.247 52.0941 117.193 52.0941C116.649 52.0941 116.185 52.2754 115.799 52.6381C115.425 52.9894 115.238 53.4881 115.238 54.1341V59.4551H113.181V53.9641C113.181 52.7174 112.654 52.0941 111.6 52.0941C111.056 52.0941 110.592 52.2754 110.206 52.6381C109.832 52.9894 109.645 53.4881 109.645 54.1341V59.4551H107.588ZM127.372 58.0271C128.131 58.0271 128.726 57.7664 129.157 57.2451C129.599 56.7124 129.82 55.9871 129.82 55.0691V54.9501C129.82 54.0321 129.599 53.3124 129.157 52.7911C128.726 52.2584 128.131 51.9921 127.372 51.9921C126.601 51.9921 125.995 52.2527 125.553 52.7741C125.122 53.2954 124.907 54.0151 124.907 54.9331V55.0691C124.907 55.9871 125.122 56.7124 125.553 57.2451C125.995 57.7664 126.601 58.0271 127.372 58.0271ZM130.636 58.3671C129.775 59.2057 128.681 59.6251 127.355 59.6251C126.029 59.6251 124.935 59.2057 124.074 58.3671C123.224 57.5284 122.799 56.4404 122.799 55.1031V54.9671C122.799 53.6071 123.23 52.5021 124.091 51.6521C124.952 50.8021 126.046 50.3771 127.372 50.3771C128.687 50.3771 129.775 50.7964 130.636 51.6351C131.497 52.4737 131.928 53.5674 131.928 54.9161V55.0521C131.928 56.4234 131.497 57.5284 130.636 58.3671ZM133.987 59.4551V50.5641H136.044V52.2301C136.633 51.0401 137.596 50.4394 138.934 50.4281V52.3491C137.97 52.3604 137.245 52.5531 136.758 52.9271C136.282 53.3011 136.044 53.9357 136.044 54.8311V59.4551H133.987ZM144.687 59.6251C143.361 59.6251 142.279 59.2171 141.44 58.4011C140.602 57.5851 140.182 56.4857 140.182 55.1031V54.9671C140.182 53.6071 140.596 52.5021 141.423 51.6521C142.262 50.8021 143.322 50.3771 144.602 50.3771C145.804 50.3771 146.801 50.7511 147.594 51.4991C148.399 52.2471 148.801 53.3691 148.801 54.8651V55.4601H142.29C142.324 56.3101 142.551 56.9617 142.97 57.4151C143.39 57.8684 143.979 58.0951 144.738 58.0951C145.94 58.0951 146.62 57.6417 146.778 56.7351H148.767C148.62 57.6644 148.189 58.3784 147.475 58.8771C146.761 59.3757 145.832 59.6251 144.687 59.6251ZM142.324 54.0831H146.761C146.659 52.6097 145.94 51.8731 144.602 51.8731C143.99 51.8731 143.48 52.0714 143.072 52.4681C142.676 52.8534 142.426 53.3917 142.324 54.0831Z" fill="white"/>
</g>
<defs>
<filter id="filter0_d_62_2707" x="0" y="0.955078" width="221" height="114" filterUnits="userSpaceOnUse" color-interpolation-filters="sRGB">
<feFlood flood-opacity="0" result="BackgroundImageFix"/>
<feColorMatrix in="SourceAlpha" type="matrix" values="0 0 0 0 0 0 0 0 0 0 0 0 0 0 0 0 0 0 127 0" result="hardAlpha"/>
<feOffset dy="4"/>
<feGaussianBlur stdDeviation="15.5"/>
<feColorMatrix type="matrix" values="0 0 0 0 0 0 0 0 0 0 0 0 0 0 0 0 0 0 0.15 0"/>
<feBlend mode="normal" in2="BackgroundImageFix" result="effect1_dropShadow_62_2707"/>
<feBlend mode="normal" in="SourceGraphic" in2="effect1_dropShadow_62_2707" result="shape"/>
</filter>
</defs>
</svg>
